<svg width="60" height="60" viewBox="0 0 60 60" fill="none" xmlns="http://www.w3.org/2000/svg">
<g clip-path="url(#clip0_16_1338)">
<rect width="60" height="60" rx="14" fill="black"/>
</g>
<rect x="1.5" y="1.5" width="57" height="57" rx="12.5" stroke="url(#paint0_linear_16_1338)" stroke-width="3" stroke-linejoin="bevel"/>
<path d="M24.9478 28.7988L38.0224 21.2387C39.3259 20.4767 39.3259 18.5917 38.0224 17.8297L24.9478 10.2697C23.6443 9.50766 21.9999 10.4502 21.9999 11.9742L21.9999 27.0943C21.9999 28.5982 23.6243 29.5407 24.9478 28.7988Z" fill="url(#paint1_linear_16_1338)"/>
<path d="M9.25574 40.04C8.57574 40.04 7.99908 39.92 7.52574 39.68C7.05241 39.44 6.69241 39.1067 6.44574 38.68C6.19908 38.2467 6.07574 37.75 6.07574 37.19C6.07574 36.6233 6.17241 36.0867 6.36574 35.58C6.55908 35.0733 6.83574 34.6233 7.19574 34.23C7.56241 33.8367 8.00574 33.5267 8.52574 33.3C9.05241 33.0733 9.64241 32.96 10.2957 32.96C10.8357 32.96 11.3091 33.04 11.7157 33.2C12.1291 33.36 12.4524 33.5867 12.6857 33.88L12.4457 34.09C12.2124 33.8167 11.9157 33.6133 11.5557 33.48C11.1957 33.34 10.7691 33.27 10.2757 33.27C9.68241 33.27 9.14574 33.3733 8.66574 33.58C8.19241 33.7867 7.78908 34.07 7.45574 34.43C7.12241 34.79 6.86574 35.2067 6.68574 35.68C6.50574 36.1533 6.41574 36.6533 6.41574 37.18C6.41574 37.68 6.52241 38.1233 6.73574 38.51C6.95574 38.89 7.27574 39.19 7.69574 39.41C8.12241 39.6233 8.65241 39.73 9.28574 39.73C9.78574 39.73 10.2357 39.6567 10.6357 39.51C11.0357 39.3567 11.3824 39.1433 11.6757 38.87L11.8757 39.12C11.5824 39.4 11.2057 39.6233 10.7457 39.79C10.2857 39.9567 9.78908 40.04 9.25574 40.04ZM16.0331 40.04C15.3464 40.04 14.7664 39.92 14.2931 39.68C13.8264 39.44 13.4698 39.1067 13.2231 38.68C12.9764 38.2467 12.8531 37.75 12.8531 37.19C12.8531 36.6233 12.9498 36.0867 13.1431 35.58C13.3364 35.0733 13.6131 34.6233 13.9731 34.23C14.3331 33.8367 14.7698 33.5267 15.2831 33.3C15.8031 33.0733 16.3864 32.96 17.0331 32.96C17.7131 32.96 18.2898 33.08 18.7631 33.32C19.2364 33.56 19.5931 33.8933 19.8331 34.32C20.0798 34.7467 20.2031 35.2433 20.2031 35.81C20.2031 36.3767 20.1064 36.9133 19.9131 37.42C19.7264 37.9267 19.4498 38.3767 19.0831 38.77C18.7231 39.1633 18.2864 39.4733 17.7731 39.7C17.2598 39.9267 16.6798 40.04 16.0331 40.04ZM16.0631 39.73C16.6431 39.73 17.1664 39.6267 17.6331 39.42C18.0998 39.2133 18.4964 38.93 18.8231 38.57C19.1564 38.21 19.4131 37.7933 19.5931 37.32C19.7731 36.8467 19.8631 36.3467 19.8631 35.82C19.8631 35.3133 19.7564 34.87 19.5431 34.49C19.3298 34.11 19.0098 33.8133 18.5831 33.6C18.1564 33.38 17.6298 33.27 17.0031 33.27C16.4231 33.27 15.8964 33.3733 15.4231 33.58C14.9564 33.7867 14.5564 34.07 14.2231 34.43C13.8964 34.79 13.6431 35.2067 13.4631 35.68C13.2831 36.1533 13.1931 36.6533 13.1931 37.18C13.1931 37.68 13.2998 38.1233 13.5131 38.51C13.7331 38.89 14.0531 39.19 14.4731 39.41C14.8998 39.6233 15.4298 39.73 16.0631 39.73ZM21.2922 40L22.6922 33H22.9722L26.7522 39.61L26.6322 39.58L27.9422 33H28.2822L26.8822 40H26.6022L22.8222 33.39L22.9422 33.42L21.6322 40H21.2922ZM30.7665 40L32.1065 33.31H29.5465L29.6065 33H35.0765L35.0065 33.31H32.4465L31.1065 40H30.7665ZM36.0134 36.29H39.8734L39.8134 36.6H35.9534L36.0134 36.29ZM35.3934 39.69H39.7934L39.7234 40H34.9934L36.3934 33H40.9734L40.9134 33.31H36.6634L35.3934 39.69ZM41.6731 40L43.0731 33H43.3531L47.1331 39.61L47.0131 39.58L48.3231 33H48.6631L47.2631 40H46.9831L43.2031 33.39L43.3231 33.42L42.0131 40H41.6731ZM51.1474 40L52.4874 33.31H49.9274L49.9874 33H55.4574L55.3874 33.31H52.8274L51.4874 40H51.1474ZM16.021 49.14C15.3077 49.14 14.6843 49.01 14.151 48.75C13.6243 48.49 13.2177 48.13 12.931 47.67C12.6443 47.2033 12.501 46.6667 12.501 46.06C12.501 45.4533 12.6077 44.8933 12.821 44.38C13.0343 43.8667 13.3343 43.4233 13.721 43.05C14.1077 42.67 14.5677 42.3767 15.101 42.17C15.641 41.9633 16.2377 41.86 16.891 41.86C17.5377 41.86 18.111 41.9733 18.611 42.2C19.111 42.4267 19.4843 42.7533 19.731 43.18L18.301 44.32C18.141 44.0533 17.931 43.85 17.671 43.71C17.4177 43.57 17.1143 43.5 16.761 43.5C16.421 43.5 16.111 43.56 15.831 43.68C15.5577 43.8 15.321 43.97 15.121 44.19C14.921 44.41 14.7677 44.67 14.661 44.97C14.5543 45.2633 14.501 45.5833 14.501 45.93C14.501 46.2433 14.5677 46.52 14.701 46.76C14.841 46.9933 15.0377 47.1767 15.291 47.31C15.551 47.4367 15.8577 47.5 16.211 47.5C16.5243 47.5 16.8243 47.4367 17.111 47.31C17.4043 47.1833 17.6743 46.9767 17.921 46.69L19.091 47.84C18.6977 48.3133 18.2443 48.65 17.731 48.85C17.2177 49.0433 16.6477 49.14 16.021 49.14ZM19.5838 49L20.9838 42H23.9738C24.8738 42 25.5672 42.1967 26.0538 42.59C26.5472 42.9833 26.7938 43.53 26.7938 44.23C26.7938 44.8167 26.6505 45.33 26.3638 45.77C26.0838 46.2033 25.6838 46.54 25.1638 46.78C24.6438 47.02 24.0305 47.14 23.3238 47.14H21.0538L22.1038 46.29L21.5638 49H19.5838ZM23.9738 49L22.5438 46.45H24.5938L26.0438 49H23.9738ZM22.0538 46.52L21.3638 45.61H23.4138C23.8538 45.61 24.1938 45.5067 24.4338 45.3C24.6738 45.0933 24.7938 44.8 24.7938 44.42C24.7938 44.1267 24.6972 43.91 24.5038 43.77C24.3105 43.63 24.0405 43.56 23.6938 43.56H21.7838L22.8438 42.62L22.0538 46.52ZM26.1462 49L30.6362 42H32.5862L34.2762 49H32.3062L31.0562 42.94H31.8362L28.2362 49H26.1462ZM28.1062 47.64L28.9062 46.18H32.3262L32.5462 47.64H28.1062ZM34.4875 49L34.7375 47.76L39.7675 42.87L39.9375 43.57H35.6775L35.9875 42H42.0175L41.7675 43.24L36.7375 48.13L36.5675 47.43H41.0775L40.7575 49H34.4875Z" fill="white"/>
<path d="M44.2446 49.14C43.8513 49.14 43.4679 49.1067 43.0946 49.04C42.7279 48.9733 42.3946 48.8833 42.0946 48.77C41.7946 48.65 41.5379 48.52 41.3246 48.38L42.1146 46.91C42.3479 47.0567 42.5913 47.1833 42.8446 47.29C43.1046 47.39 43.3679 47.4667 43.6346 47.52C43.9079 47.5733 44.1779 47.6 44.4446 47.6C44.6979 47.6 44.9113 47.5767 45.0846 47.53C45.2646 47.4767 45.4013 47.4033 45.4946 47.31C45.5946 47.2167 45.6446 47.1067 45.6446 46.98C45.6446 46.84 45.5813 46.73 45.4546 46.65C45.3346 46.5633 45.1713 46.49 44.9646 46.43C44.7646 46.37 44.5446 46.31 44.3046 46.25C44.0646 46.1833 43.8213 46.1067 43.5746 46.02C43.3346 45.9267 43.1113 45.8133 42.9046 45.68C42.7046 45.54 42.5413 45.3633 42.4146 45.15C42.2946 44.9367 42.2346 44.6733 42.2346 44.36C42.2346 43.8533 42.3713 43.4133 42.6446 43.04C42.9246 42.6667 43.3146 42.3767 43.8146 42.17C44.3213 41.9633 44.9179 41.86 45.6046 41.86C46.0979 41.86 46.5613 41.9133 46.9946 42.02C47.4346 42.1267 47.8113 42.2767 48.1246 42.47L47.3946 43.93C47.1213 43.7567 46.8213 43.6267 46.4946 43.54C46.1679 43.4467 45.8313 43.4 45.4846 43.4C45.2113 43.4 44.9813 43.43 44.7946 43.49C44.6079 43.55 44.4646 43.6333 44.3646 43.74C44.2713 43.84 44.2213 43.9533 44.2146 44.08C44.2146 44.2133 44.2746 44.3233 44.3946 44.41C44.5213 44.4967 44.6846 44.57 44.8846 44.63C45.0913 44.69 45.3146 44.7533 45.5546 44.82C45.7946 44.88 46.0346 44.9533 46.2746 45.04C46.5213 45.12 46.7446 45.23 46.9446 45.37C47.1513 45.5033 47.3146 45.6733 47.4346 45.88C47.5613 46.0867 47.6246 46.3433 47.6246 46.65C47.6246 47.15 47.4846 47.5867 47.2046 47.96C46.9313 48.3333 46.5413 48.6233 46.0346 48.83C45.5279 49.0367 44.9313 49.14 44.2446 49.14ZM43.4446 50.2L43.7146 48.84H44.9146L44.6446 50.2H43.4446ZM45.0446 42.22L45.3246 40.8H46.5246L46.2346 42.22H45.0446Z" fill="url(#paint2_linear_16_1338)"/>
<defs>
<linearGradient id="paint0_linear_16_1338" x1="30" y1="0" x2="30" y2="60" gradientUnits="userSpaceOnUse">
<stop stop-color="#00FF79"/>
<stop offset="0.5" stop-color="#2740FF"/>
<stop offset="1" stop-color="#00FF79"/>
</linearGradient>
<linearGradient id="paint1_linear_16_1338" x1="30.5" y1="10" x2="30.5" y2="29.0574" gradientUnits="userSpaceOnUse">
<stop stop-color="#00FF79"/>
<stop offset="0.5" stop-color="#007AFF"/>
<stop offset="1" stop-color="#00FF79"/>
</linearGradient>
<linearGradient id="paint2_linear_16_1338" x1="30" y1="32" x2="30" y2="50" gradientUnits="userSpaceOnUse">
<stop stop-color="#00FF79"/>
<stop offset="0.5" stop-color="#007AFF"/>
<stop offset="1" stop-color="#00FF79"/>
</linearGradient>
<clipPath id="clip0_16_1338">
<rect width="60" height="60" rx="14" fill="white"/>
</clipPath>
</defs>
</svg>
