<svg width="66" height="28" viewBox="0 0 66 28" fill="none" xmlns="http://www.w3.org/2000/svg">
<rect x="1" y="1" width="64" height="26" rx="13" fill="black" stroke="url(#paint0_linear_16_1336)" stroke-width="2"/>
<path d="M14.1655 20.81L23.7704 15.2562C24.7279 14.6964 24.7279 13.3117 23.7704 12.7519L14.1655 7.19811C13.2079 6.63831 11.9999 7.33069 11.9999 8.45028L11.9999 19.5578C11.9999 20.6627 13.1932 21.355 14.1655 20.81Z" fill="url(#paint1_linear_16_1336)"/>
<path d="M30.0068 15.228V14.0562H32.9951C33.752 14.0562 34.3379 13.8608 34.7529 13.4702C35.168 13.0747 35.3755 12.5303 35.3755 11.8369V11.8223C35.3755 11.124 35.168 10.5796 34.7529 10.189C34.3379 9.79834 33.752 9.60303 32.9951 9.60303H30.0068V8.43115H33.332C33.9961 8.43115 34.582 8.57275 35.0898 8.85596C35.5977 9.13916 35.9956 9.53467 36.2837 10.0425C36.5767 10.5503 36.7231 11.1387 36.7231 11.8076V11.8223C36.7231 12.4912 36.5767 13.082 36.2837 13.5947C35.9956 14.1074 35.5977 14.5078 35.0898 14.7959C34.582 15.084 33.9961 15.228 33.332 15.228H30.0068ZM29.3477 19V8.43115H30.666V19H29.3477ZM38.5659 19V7.96973H39.8403V19H38.5659ZM44.2246 19.1392C43.7265 19.1392 43.2773 19.0439 42.8769 18.8535C42.4814 18.6631 42.1665 18.3921 41.9321 18.0405C41.7026 17.689 41.5879 17.2739 41.5879 16.7954V16.7808C41.5879 16.312 41.7002 15.9116 41.9248 15.5796C42.1494 15.2427 42.4765 14.979 42.9062 14.7886C43.3359 14.5981 43.8559 14.4858 44.4663 14.4517L47.3667 14.2759V15.2939L44.6201 15.4697C44.0195 15.5039 43.58 15.6284 43.3017 15.8433C43.0283 16.0581 42.8916 16.3608 42.8916 16.7515V16.7661C42.8916 17.1665 43.0429 17.479 43.3457 17.7036C43.6484 17.9233 44.0293 18.0332 44.4882 18.0332C44.9228 18.0332 45.3086 17.9478 45.6455 17.7769C45.9824 17.6011 46.2461 17.3643 46.4365 17.0664C46.6318 16.7686 46.7295 16.4316 46.7295 16.0557V13.5947C46.7295 13.1064 46.5805 12.7354 46.2827 12.4814C45.9897 12.2227 45.5478 12.0933 44.957 12.0933C44.4834 12.0933 44.0952 12.1787 43.7924 12.3496C43.4897 12.5156 43.2871 12.7524 43.1845 13.0601L43.1772 13.082H41.9028L41.9101 13.0381C41.9785 12.623 42.1494 12.2617 42.4228 11.9541C42.7011 11.6416 43.06 11.3999 43.4995 11.229C43.9389 11.0532 44.4394 10.9653 45.0009 10.9653C45.6455 10.9653 46.1899 11.0703 46.6342 11.2803C47.0835 11.4902 47.4228 11.793 47.6523 12.1885C47.8867 12.5791 48.0039 13.0479 48.0039 13.5947V19H46.7295V17.8354H46.6123C46.4462 18.1138 46.2436 18.3506 46.0044 18.5459C45.77 18.7412 45.5039 18.8901 45.206 18.9927C44.9082 19.0903 44.581 19.1392 44.2246 19.1392ZM50.4838 21.7686C50.4008 21.7686 50.308 21.7637 50.2055 21.7539C50.103 21.749 50.0078 21.7393 49.9199 21.7246V20.6772C49.998 20.6919 50.0834 20.7017 50.1762 20.7065C50.269 20.7114 50.3593 20.7139 50.4472 20.7139C50.8085 20.7139 51.1039 20.6211 51.3334 20.4355C51.5678 20.25 51.7558 19.9302 51.8974 19.4761L52.0439 19.0073L49.1215 11.1045H50.4838L52.9155 18.3994L52.4101 17.6011H53.0107L52.5053 18.3994L54.9296 11.1045H56.27L53.1865 19.4834C52.9716 20.0742 52.7446 20.5356 52.5053 20.8677C52.2661 21.1997 51.9853 21.4316 51.663 21.5635C51.3456 21.7002 50.9526 21.7686 50.4838 21.7686Z" fill="white"/>
<defs>
<linearGradient id="paint0_linear_16_1336" x1="33" y1="0" x2="33" y2="28" gradientUnits="userSpaceOnUse">
<stop stop-color="#00FF79"/>
<stop offset="0.5" stop-color="#2740FF"/>
<stop offset="1" stop-color="#00FF79"/>
</linearGradient>
<linearGradient id="paint1_linear_16_1336" x1="18.2442" y1="7" x2="18.2442" y2="21" gradientUnits="userSpaceOnUse">
<stop stop-color="#00FF79"/>
<stop offset="0.5" stop-color="#007AFF"/>
<stop offset="1" stop-color="#00FF79"/>
</linearGradient>
</defs>
</svg>
